PathFileType	4	(X/Y/Z)	E:\3-PhD\Data\MocapData\ElaboratedData\009\pre\dynamicElaborations\RunL1\RunL1.trc
DataRate	CameraRate	NumFrames	NumMarkers	Units	OrigDataRate	DataStartFrame
200	200	4	54	mm	200	438
Frame#	Time	FHD			LBHD			RBHD			C7			T10			CLAV			LSHO			LUUPA			LMUPA			LDUPA			LLEP			LMEP			LRAD			LUL			LRFIN			RSHO			RUPA1			RMUPA			RDUPA			RLEP			RMEP			RRAD			RUL			RUFIN			RASI			USACR			LSACR			RSACR			LTHI1			LTHI2			LTHI3			LTHI4			LTIB1			LTIB2			LTIB3			LTIB4			LLMAL			LHEE			LMT1			LMT2			RTHI			RTHI2			RTHI3			RTHI4			RLFC			RTIB1			RTIB2			RTIB3			RTIB4			RLMAL			RHEE			RMT1			RMT2			RMT5		
		X1	Y1	Z1	X2	Y2	Z2	X3	Y3	Z3	X4	Y4	Z4	X5	Y5	Z5	X6	Y6	Z6	X7	Y7	Z7	X8	Y8	Z8	X9	Y9	Z9	X10	Y10	Z10	X11	Y11	Z11	X12	Y12	Z12	X13	Y13	Z13	X14	Y14	Z14	X15	Y15	Z15	X16	Y16	Z16	X17	Y17	Z17	X18	Y18	Z18	X19	Y19	Z19	X20	Y20	Z20	X21	Y21	Z21	X22	Y22	Z22	X23	Y23	Z23	X24	Y24	Z24	X25	Y25	Z25	X26	Y26	Z26	X27	Y27	Z27	X28	Y28	Z28	X29	Y29	Z29	X30	Y30	Z30	X31	Y31	Z31	X32	Y32	Z32	X33	Y33	Z33	X34	Y34	Z34	X35	Y35	Z35	X36	Y36	Z36	X37	Y37	Z37	X38	Y38	Z38	X39	Y39	Z39	X40	Y40	Z40	X41	Y41	Z41	X42	Y42	Z42	X43	Y43	Z43	X44	Y44	Z44	X45	Y45	Z45	X46	Y46	Z46	X47	Y47	Z47	X48	Y48	Z48	X49	Y49	Z49	X50	Y50	Z50	X51	Y51	Z51	X52	Y52	Z52	X53	Y53	Z53	X54	Y54	Z54	

467	2.330000	-2027.145194	1498.250698	381.728720	-2190.896363	1566.678933	289.213057	-2161.811704	1539.546430	410.410337	-2294.184805	1442.675146	340.422485	-2492.616313	1155.435701	396.724519	-2205.588797	1298.129194	317.034314	-2248.842144	1367.729095	176.785754	-2379.067751	1233.963421	87.557183	-2355.393994	1192.142711	90.658810	-2410.682610	1174.540355	72.747245	-2474.444902	1070.794349	61.648511	-2495.988800	1060.237796	131.476218	-2292.364096	904.770719	136.064842	-2331.662738	848.099944	107.270938	-2232.613861	879.387199	107.433210	-2203.327611	1373.027705	488.419822	-2298.697706	1255.716269	596.404945	-2293.953655	1210.479830	583.013967	-2336.143566	1206.312703	626.309778	-2416.798216	1100.377072	664.177606	-2456.922297	1094.352632	604.978351	-2287.704244	878.757685	605.950852	-2334.906925	853.660950	649.911664	-2233.048930	845.448940	659.198984	-2384.367943	920.101122	473.287393	-2537.944494	1073.529187	410.010921	-2558.195458	1047.031939	383.163762	-2542.520294	1040.577352	439.660858	-2451.805062	732.075997	164.664512	-2394.879438	669.025604	159.592009	-2350.594354	686.555260	163.788642	-2403.424885	609.164675	171.831155	-2325.873832	336.886827	236.833842	-2397.902181	304.187301	198.862961	-2361.146098	294.170690	219.727037	-2374.176133	222.362891	261.409337	-2470.026165	91.757351	277.385809	-2546.870445	54.596617	331.842748	-2323.016847	59.429818	337.692040	-2325.276644	54.709516	291.927753	-2460.167928	677.600037	545.760755	-2429.436593	620.665726	543.521109	-2397.852685	616.644020	532.180832	-2467.488703	545.657729	535.151987	-2471.847973	451.282218	513.749973	-2663.148595	439.882221	447.503698	-2724.792771	524.987844	474.673964	-2734.741995	482.564002	455.983697	-2779.554987	486.546568	419.961071	-2854.758877	570.069181	443.207322	-2856.351996	646.490227	388.687591	-2970.143680	450.933959	359.582022	-2972.828807	450.816311	403.895318	-2983.761997	501.865473	449.779339	
468	2.335000	-2000.748826	1498.160715	381.876387	-2164.319648	1565.868222	288.546445	-2135.761616	1538.998828	409.891335	-2268.156652	1440.959848	339.438916	-2464.841227	1152.088466	396.818121	-2177.889475	1296.958168	317.352040	-2221.397373	1366.051124	176.999577	-2343.841725	1225.840327	87.764379	-2318.120642	1185.281978	91.717776	-2371.982527	1164.749469	72.866430	-2430.025484	1057.270372	61.692601	-2452.163461	1045.492250	131.020511	-2238.458799	905.693266	141.614499	-2272.865273	846.286852	112.420784	-2176.527989	884.783323	114.007177	-2177.882405	1371.807677	489.225621	-2277.835487	1258.041507	597.727063	-2273.686649	1212.433705	585.708239	-2317.227023	1210.237553	627.576689	-2400.298335	1106.374310	665.660816	-2440.429585	1101.205846	606.579990	-2282.958283	877.390485	611.134772	-2331.510674	855.758100	655.851270	-2230.172594	842.679752	665.244637	-2355.620542	916.426338	470.378347	-2510.064990	1071.079786	410.432125	-2530.416234	1044.892111	383.331487	-2514.519084	1037.739095	439.700450	-2430.238755	729.020221	164.473133	-2375.308228	664.218716	159.773603	-2330.500478	680.166051	163.760272	-2385.865232	604.742027	172.157821	-2315.612927	330.642579	238.755706	-2388.649682	300.285687	200.627701	-2352.358888	288.982377	221.970569	-2368.538244	217.968821	264.075850	-2469.500295	91.699216	279.442374	-2547.279055	54.699008	333.607238	-2323.312650	58.698707	339.156680	-2325.680815	54.576737	293.241599	-2421.980521	676.196146	545.222511	-2388.749481	620.647884	543.243889	-2357.089073	617.832218	531.431057	-2423.356786	544.078402	535.296729	-2423.625007	450.286686	513.710498	-2614.330847	439.191125	446.879123	-2676.122034	523.791304	474.683094	-2685.962151	481.617809	455.463844	-2730.724922	485.923089	419.526433	-2805.360061	568.989617	443.011619	-2809.006258	646.089384	389.146448	-2920.201974	448.972103	360.471447	-2921.966162	448.327596	404.650738	-2932.961315	498.978378	450.924798	
469	2.340000	-1974.319512	1498.333814	382.122427	-2137.693977	1565.197369	287.888117	-2109.687358	1538.721838	409.402557	-2242.046106	1439.459509	338.563440	-2437.076014	1149.102365	396.854076	-2150.158466	1296.038260	317.909892	-2193.700550	1364.557445	177.389691	-2307.965363	1218.450431	88.060806	-2280.340434	1179.217489	92.956866	-2332.535550	1155.887219	73.027004	-2384.695294	1045.006030	61.832756	-2407.466863	1031.926752	130.605351	-2184.837962	908.528191	147.126950	-2214.094990	846.790434	117.448119	-2121.029400	892.326676	120.535342	-2152.549308	1371.121760	490.171205	-2257.031538	1260.982674	599.089952	-2253.408370	1214.995441	588.567686	-2298.399262	1214.863546	628.808555	-2383.568776	1112.993088	667.125048	-2423.672550	1108.693392	608.149454	-2277.641918	877.886644	615.808172	-2327.223757	859.537126	661.159171	-2226.588915	841.932392	670.556321	-2327.083871	912.991561	467.363666	-2482.232651	1069.041099	410.688079	-2502.688562	1043.128545	383.365721	-2486.569945	1035.350123	439.602104	-2408.995100	726.405139	164.310782	-2356.217754	659.846203	159.980741	-2310.905763	674.185988	163.654481	-2368.759687	600.811591	172.627616	-2306.016518	325.058891	240.277453	-2380.095311	297.111250	202.188538	-2344.276254	284.547091	223.849629	-2363.258007	214.317476	266.184036	-2468.917748	92.218785	281.137218	-2547.545595	55.601305	335.238267	-2323.496737	58.340986	340.198370	-2326.020874	54.623646	294.187040	-2383.584240	675.629797	544.540252	-2347.807314	621.652519	542.716029	-2316.161815	620.097852	530.367755	-2378.764684	543.597820	535.134230	-2374.890625	450.517791	513.369252	-2565.140909	438.570665	446.175505	-2627.543040	522.280804	474.660967	-2637.038692	480.311634	454.933166	-2681.800910	484.657571	419.115837	-2756.366166	566.798369	442.864485	-2762.540744	644.503393	389.733741	-2869.923494	445.271897	361.521701	-2870.763900	444.145009	405.540588	-2882.092990	494.336817	452.234225	
470	2.345000	-1947.834793	1498.769960	382.467759	-2110.997250	1564.695551	287.257030	-2083.558103	1538.728001	408.958921	-2215.818346	1438.214579	337.788894	-2409.268504	1146.583623	396.794693	-2122.383794	1295.407872	318.693595	-2165.698138	1363.326626	177.952211	-2271.532077	1211.945174	88.464432	-2242.152589	1174.084614	94.369408	-2292.471562	1148.110003	73.254562	-2338.633485	1034.177211	62.118923	-2362.035531	1019.743194	130.317980	-2131.705193	913.301775	152.570500	-2155.617340	849.662860	122.335971	-2066.359288	902.002316	126.962232	-2127.316017	1371.017603	491.216010	-2236.188146	1264.515830	600.422582	-2233.040338	1218.159931	591.459679	-2279.495275	1220.121790	629.938717	-2366.562163	1120.233201	668.521727	-2406.574515	1116.806951	609.618289	-2271.605453	880.067955	619.991129	-2321.977711	864.806254	665.858018	-2222.179611	842.973778	675.182951	-2298.694231	909.927184	464.296055	-2454.387256	1067.435106	410.825430	-2474.946612	1041.750364	383.326436	-2458.590968	1033.442096	439.432176	-2388.038587	724.266282	164.230559	-2337.570967	655.962018	160.206518	-2291.785335	668.712047	163.475724	-2352.027090	597.427304	173.254473	-2297.061751	320.032314	241.435635	-2372.152595	294.546180	203.471319	-2336.822068	280.753030	225.315041	-2358.356095	211.300728	267.712610	-2468.270839	93.196972	282.369984	-2547.675884	57.217817	336.545288	-2323.581883	58.224751	340.843064	-2326.283432	54.739673	294.790466	-2345.048534	675.983266	543.730989	-2306.698047	623.769761	541.949958	-2275.162393	623.536987	529.018837	-2333.818263	544.323858	534.645674	-2325.772315	452.064168	512.719680	-2515.669515	438.082930	445.383547	-2579.132177	520.514875	474.577238	-2588.052772	478.701605	454.376151	-2632.862690	482.789717	418.715070	-2707.888151	563.534660	442.776720	-2717.048718	641.704986	390.421887	-2819.329674	439.869587	362.674794	-2819.259632	438.319031	406.503960	-2831.202408	487.976739	453.654683	
